<svg xmlns="http://www.w3.org/2000/svg" viewBox="-147.3049920654297 94.29999923706055 869.6099853515625 330.8500003814697"> <svg xmlns="http://www.w3.org/2000/svg" xmlns:xlink="http://www.w3.org/1999/xlink" version="1.1" id="Layer_1" x="132" y="164.29999923706055" viewBox="0 0 692.7000122070312 321.20001220703125" xml:space="preserve" height="144.20848979375066" width="310.99999999999994" preserveAspectRatio="xMinYMin" enable-background="new 0 0 692.7 321.2" style="overflow: visible;"><polygon class="st0" points="224,108.6 79.3,245.9 0,321.2 109.3,321.2 121.3,309.8 188.7,245.9 278.7,160.5 " style="fill: #ffffff; fill-opacity: 1;"></polygon><polygon class="st0" points="395.7,75.3 382.1,62.4 327.5,10.5 272.8,62.4 286.4,75.3 327.4,114.2 376.3,160.6 286.4,245.9   207,321.2 316.4,321.2 320.3,317.5 395.7,245.9 485.7,160.6 " style="fill: #ffffff; fill-opacity: 1;"></polygon><polygon class="st0" points="523.5,0 413.9,0 493.3,75.3 493.5,75.3 583.4,160.6 414.2,321.2 523.5,321.2 692.7,160.6 " style="fill: #ffffff; fill-opacity: 1;"></polygon></svg> <svg y="323.6499996185303" viewBox="4.619999885559082 11.4399995803833 729.6099853515625 31.5" x="-77.3049920654297" height="31.5" width="729.6099853515625" style="overflow: visible;"><g fill="#ffffff" fill-opacity="1" style=""><path d="M9.02 42.59L4.62 42.59L4.62 11.79L16.63 11.79Q22.62 11.79 26.05 14.63Q29.48 17.47 29.48 22.53L29.48 22.53Q29.48 25.87 27.94 28.27Q26.40 30.67 23.54 31.94Q20.68 33.22 16.63 33.22L16.63 33.22L7.04 33.22L9.02 31.20L9.02 42.59ZM30.01 42.59L25.21 42.59L17.38 31.42L22.09 31.42L30.01 42.59ZM9.02 13.42L9.02 31.64L7.04 29.48L16.50 29.48Q20.72 29.48 22.90 27.65Q25.08 25.83 25.08 22.53L25.08 22.53Q25.08 19.23 22.90 17.42Q20.72 15.62 16.50 15.62L16.50 15.62L7.04 15.62L9.02 13.42ZM58.96 42.59L36.61 42.59L36.61 11.79L58.34 11.79L58.34 15.62L41.01 15.62L41.01 38.76L58.96 38.76L58.96 42.59ZM56.45 28.82L40.61 28.82L40.61 25.08L56.45 25.08L56.45 28.82ZM75.06 42.94L75.06 42.94Q71.54 42.94 68.33 41.87Q65.12 40.79 63.27 39.07L63.27 39.07L64.90 35.64Q66.66 37.18 69.39 38.19Q72.12 39.20 75.06 39.20L75.06 39.20Q77.75 39.20 79.42 38.59Q81.09 37.97 81.88 36.89Q82.68 35.82 82.68 34.45L82.68 34.45Q82.68 32.87 81.64 31.90Q80.61 30.93 78.96 30.34Q77.31 29.74 75.33 29.30Q73.35 28.86 71.35 28.27Q69.34 27.68 67.69 26.75Q66.04 25.83 65.03 24.27Q64.02 22.70 64.02 20.24L64.02 20.24Q64.02 17.86 65.27 15.86Q66.53 13.86 69.15 12.65Q71.76 11.44 75.81 11.44L75.81 11.44Q78.50 11.44 81.14 12.14Q83.78 12.85 85.71 14.17L85.71 14.17L84.26 17.69Q82.28 16.37 80.08 15.77Q77.88 15.18 75.81 15.18L75.81 15.18Q73.22 15.18 71.54 15.84Q69.87 16.50 69.10 17.60Q68.33 18.70 68.33 20.06L68.33 20.06Q68.33 21.69 69.37 22.66Q70.40 23.63 72.05 24.20Q73.70 24.77 75.68 25.23Q77.66 25.70 79.66 26.27Q81.66 26.84 83.31 27.76Q84.96 28.69 85.98 30.23Q86.99 31.77 86.99 34.19L86.99 34.19Q86.99 36.52 85.71 38.52Q84.44 40.52 81.77 41.73Q79.11 42.94 75.06 42.94ZM97.81 42.59L93.41 42.59L93.41 11.79L97.81 11.79L97.81 42.59ZM128.13 42.59L107.05 42.59L107.05 11.79L111.45 11.79L111.45 38.76L128.13 38.76L128.13 42.59ZM137.59 42.59L133.19 42.59L133.19 11.79L137.59 11.79L137.59 42.59ZM169.18 42.59L146.83 42.59L146.83 11.79L168.56 11.79L168.56 15.62L151.23 15.62L151.23 38.76L169.18 38.76L169.18 42.59ZM166.67 28.82L150.83 28.82L150.83 25.08L166.67 25.08L166.67 28.82ZM180.71 42.59L176.31 42.59L176.31 11.79L179.92 11.79L200.29 37.09L198.40 37.09L198.40 11.79L202.80 11.79L202.80 42.59L199.19 42.59L178.82 17.29L180.71 17.29L180.71 42.59ZM225.81 42.94L225.81 42.94Q222.29 42.94 219.32 41.78Q216.35 40.61 214.17 38.48Q211.99 36.34 210.76 33.48Q209.53 30.62 209.53 27.19L209.53 27.19Q209.53 23.76 210.76 20.90Q211.99 18.04 214.19 15.91Q216.39 13.77 219.36 12.61Q222.33 11.44 225.85 11.44L225.85 11.44Q229.42 11.44 232.43 12.65Q235.44 13.86 237.56 16.24L237.56 16.24L234.70 19.01Q232.94 17.16 230.74 16.26Q228.54 15.36 226.03 15.36L226.03 15.36Q223.43 15.36 221.21 16.24Q218.99 17.12 217.36 18.70Q215.73 20.28 214.83 22.46Q213.93 24.64 213.93 27.19L213.93 27.19Q213.93 29.74 214.83 31.92Q215.73 34.10 217.36 35.68Q218.99 37.27 221.21 38.15Q223.43 39.03 226.03 39.03L226.03 39.03Q228.54 39.03 230.74 38.13Q232.94 37.22 234.70 35.33L234.70 35.33L237.56 38.10Q235.44 40.48 232.43 41.71Q229.42 42.94 225.81 42.94ZM265.76 42.59L243.41 42.59L243.41 11.79L265.14 11.79L265.14 15.62L247.81 15.62L247.81 38.76L265.76 38.76L265.76 42.59ZM263.25 28.82L247.41 28.82L247.41 25.08L263.25 25.08L263.25 28.82ZM289.12 42.59L284.72 42.59L284.72 11.79L296.74 11.79Q300.78 11.79 303.64 13.07Q306.50 14.34 308.04 16.76Q309.58 19.18 309.58 22.53L309.58 22.53Q309.58 25.87 308.04 28.27Q306.50 30.67 303.64 31.97Q300.78 33.26 296.74 33.26L296.74 33.26L287.14 33.26L289.12 31.20L289.12 42.59ZM289.12 13.42L289.12 31.64L287.14 29.44L296.60 29.44Q300.83 29.44 303.01 27.63Q305.18 25.83 305.18 22.53L305.18 22.53Q305.18 19.23 303.01 17.42Q300.83 15.62 296.60 15.62L296.60 15.62L287.14 15.62L289.12 13.42ZM342.98 42.59L338.58 42.59L338.58 11.79L342.98 11.79L342.98 42.59ZM320.89 42.59L316.49 42.59L316.49 11.79L320.89 11.79L320.89 42.59ZM338.98 28.86L320.45 28.86L320.45 25.04L338.98 25.04L338.98 28.86ZM364.01 42.59L359.66 42.59L359.66 30.80L360.67 33.53L347.42 11.79L352.13 11.79L363.26 30.14L360.71 30.14L371.89 11.79L376.24 11.79L363.04 33.53L364.01 30.80L364.01 42.59ZM389.66 42.94L389.66 42.94Q386.14 42.94 382.93 41.87Q379.72 40.79 377.87 39.07L377.87 39.07L379.50 35.64Q381.26 37.18 383.99 38.19Q386.72 39.20 389.66 39.20L389.66 39.20Q392.35 39.20 394.02 38.59Q395.69 37.97 396.48 36.89Q397.28 35.82 397.28 34.45L397.28 34.45Q397.28 32.87 396.24 31.90Q395.21 30.93 393.56 30.34Q391.91 29.74 389.93 29.30Q387.95 28.86 385.95 28.27Q383.94 27.68 382.29 26.75Q380.64 25.83 379.63 24.27Q378.62 22.70 378.62 20.24L378.62 20.24Q378.62 17.86 379.87 15.86Q381.13 13.86 383.75 12.65Q386.36 11.44 390.41 11.44L390.41 11.44Q393.10 11.44 395.74 12.14Q398.38 12.85 400.31 14.17L400.31 14.17L398.86 17.69Q396.88 16.37 394.68 15.77Q392.48 15.18 390.41 15.18L390.41 15.18Q387.82 15.18 386.14 15.84Q384.47 16.50 383.70 17.60Q382.93 18.70 382.93 20.06L382.93 20.06Q382.93 21.69 383.97 22.66Q385.00 23.63 386.65 24.20Q388.30 24.77 390.28 25.23Q392.26 25.70 394.26 26.27Q396.26 26.84 397.91 27.76Q399.56 28.69 400.58 30.23Q401.59 31.77 401.59 34.19L401.59 34.19Q401.59 36.52 400.31 38.52Q399.04 40.52 396.37 41.73Q393.71 42.94 389.66 42.94ZM412.41 42.59L408.01 42.59L408.01 11.79L412.41 11.79L412.41 42.59ZM435.42 42.94L435.42 42.94Q431.90 42.94 428.93 41.78Q425.96 40.61 423.79 38.48Q421.61 36.34 420.38 33.48Q419.14 30.62 419.14 27.19L419.14 27.19Q419.14 23.76 420.38 20.90Q421.61 18.04 423.81 15.91Q426.01 13.77 428.98 12.61Q431.95 11.44 435.47 11.44L435.47 11.44Q439.03 11.44 442.05 12.65Q445.06 13.86 447.17 16.24L447.17 16.24L444.31 19.01Q442.55 17.16 440.35 16.26Q438.15 15.36 435.64 15.36L435.64 15.36Q433.05 15.36 430.83 16.24Q428.60 17.12 426.98 18.70Q425.35 20.28 424.45 22.46Q423.54 24.64 423.54 27.19L423.54 27.19Q423.54 29.74 424.45 31.92Q425.35 34.10 426.98 35.68Q428.60 37.27 430.83 38.15Q433.05 39.03 435.64 39.03L435.64 39.03Q438.15 39.03 440.35 38.13Q442.55 37.22 444.31 35.33L444.31 35.33L447.17 38.10Q445.06 40.48 442.05 41.71Q439.03 42.94 435.42 42.94ZM452.89 42.59L448.36 42.59L462.31 11.79L466.66 11.79L480.66 42.59L476.04 42.59L463.58 14.26L465.34 14.26L452.89 42.59ZM474.10 34.89L454.30 34.89L455.49 31.37L472.82 31.37L474.10 34.89ZM506.31 42.59L485.23 42.59L485.23 11.79L489.63 11.79L489.63 38.76L506.31 38.76L506.31 42.59ZM533.68 42.59L529.32 42.59L529.32 15.62L518.76 15.62L518.76 11.79L544.24 11.79L544.24 15.62L533.68 15.62L533.68 42.59ZM575.52 42.59L571.12 42.59L571.12 11.79L575.52 11.79L575.52 42.59ZM553.43 42.59L549.03 42.59L549.03 11.79L553.43 11.79L553.43 42.59ZM571.52 28.86L552.99 28.86L552.99 25.04L571.52 25.04L571.52 28.86ZM607.11 42.59L584.76 42.59L584.76 11.79L606.50 11.79L606.50 15.62L589.16 15.62L589.16 38.76L607.11 38.76L607.11 42.59ZM604.60 28.82L588.76 28.82L588.76 25.08L604.60 25.08L604.60 28.82ZM618.64 42.59L614.24 42.59L614.24 11.79L626.25 11.79Q632.24 11.79 635.67 14.63Q639.10 17.47 639.10 22.53L639.10 22.53Q639.10 25.87 637.56 28.27Q636.02 30.67 633.16 31.94Q630.30 33.22 626.25 33.22L626.25 33.22L616.66 33.22L618.64 31.20L618.64 42.59ZM639.63 42.59L634.83 42.59L627 31.42L631.71 31.42L639.63 42.59ZM618.64 13.42L618.64 31.64L616.66 29.48L626.12 29.48Q630.34 29.48 632.52 27.65Q634.70 25.83 634.70 22.53L634.70 22.53Q634.70 19.23 632.52 17.42Q630.34 15.62 626.12 15.62L626.12 15.62L616.66 15.62L618.64 13.42ZM646.10 42.59L641.56 42.59L655.51 11.79L659.87 11.79L673.86 42.59L669.24 42.59L656.79 14.26L658.55 14.26L646.10 42.59ZM667.30 34.89L647.50 34.89L648.69 31.37L666.03 31.37L667.30 34.89ZM682.84 42.59L678.44 42.59L678.44 11.79L690.45 11.79Q694.50 11.79 697.36 13.07Q700.22 14.34 701.76 16.76Q703.30 19.18 703.30 22.53L703.30 22.53Q703.30 25.87 701.76 28.27Q700.22 30.67 697.36 31.97Q694.50 33.26 690.45 33.26L690.45 33.26L680.86 33.26L682.84 31.20L682.84 42.59ZM682.84 13.42L682.84 31.64L680.86 29.44L690.32 29.44Q694.54 29.44 696.72 27.63Q698.90 25.83 698.90 22.53L698.90 22.53Q698.90 19.23 696.72 17.42Q694.54 15.62 690.32 15.62L690.32 15.62L680.86 15.62L682.84 13.42ZM722.00 42.59L717.64 42.59L717.64 30.80L718.65 33.53L705.41 11.79L710.12 11.79L721.25 30.14L718.70 30.14L729.87 11.79L734.23 11.79L721.03 33.53L722.00 30.80L722.00 42.59Z" transform="translate(0, 0)"></path></g></svg></svg>